<svg width="36" height="36" viewBox="0 0 36 36" fill="none" xmlns="http://www.w3.org/2000/svg">
<path d="M17.4989 0.200262C14.0379 0.239868 10.6664 1.30487 7.81077 3.2606C4.9551 5.21633 2.7435 7.97495 1.45565 11.1876C0.167791 14.4003 -0.138481 17.9227 0.575561 21.3094C1.2896 24.6961 2.99189 27.795 5.46715 30.2143C7.94242 32.6335 11.0795 34.2644 14.4817 34.9008C17.8838 35.5371 21.3983 35.1503 24.5806 33.7893C27.763 32.4283 30.4703 30.1541 32.3601 27.2544C34.25 24.3548 35.2376 20.9598 35.198 17.4989C35.14 12.8594 33.2439 8.4325 29.9257 5.18943C26.6076 1.94636 22.1384 0.152068 17.4989 0.200262ZM25.3927 18.5635L20.07 24.0094C19.8203 24.2649 19.4794 24.4107 19.1222 24.4148C18.765 24.4189 18.4208 24.2809 18.1653 24.0312C17.9099 23.7815 17.7641 23.4406 17.76 23.0834C17.7559 22.7262 17.8939 22.382 18.1436 22.1265L21.1958 19.0053L10.9842 19.1222C10.6272 19.1263 10.2832 18.9884 10.0279 18.7388C9.77254 18.4893 9.6268 18.1485 9.62272 17.7915C9.61863 17.4345 9.75653 17.0905 10.0061 16.8352C10.2556 16.5799 10.5964 16.4342 10.9534 16.4301L21.165 16.3132L18.0421 13.2627C17.7866 13.013 17.6408 12.6721 17.6367 12.3149C17.6327 11.9577 17.7706 11.6135 18.0203 11.358C18.27 11.1025 18.6109 10.9567 18.9681 10.9526C19.3253 10.9485 19.6695 11.0865 19.925 11.3362L25.3709 16.6589C25.4975 16.7824 25.5984 16.9298 25.6681 17.0924C25.7377 17.255 25.7745 17.4298 25.7766 17.6067C25.7786 17.7836 25.7457 17.9591 25.6799 18.1233C25.614 18.2875 25.5164 18.4371 25.3927 18.5635Z" fill="#FCAB26"/>
</svg>
