<svg width="48" height="48" viewBox="0 0 48 48" fill="none" xmlns="http://www.w3.org/2000/svg">
<rect width="48" height="48" rx="24" fill="#50C5DF"/>
<path d="M14.7434 13H33.2566C34.8322 13 36.2684 13.6466 37.3107 14.6895C38.3531 15.7284 39 17.1652 39 18.7463V30.2531C39 31.8307 38.3537 33.2669 37.3107 34.3105C36.273 35.3528 34.8369 36 33.2566 36H14.7434C13.1631 36 11.727 35.3528 10.6869 34.3122L10.6225 34.243C9.61934 33.206 9 31.7972 9 30.2531V18.7463C9 17.1699 9.64629 15.7348 10.6869 14.6919L10.691 14.6878C11.7357 13.6455 13.1689 13 14.7434 13ZM27.9686 25.2284C28.6934 24.76 28.6916 24.2382 27.9686 23.8238L22.1549 19.7734C21.5637 19.4029 20.9479 19.6204 20.9643 20.3919L20.9877 28.5407C21.0381 29.3772 21.5156 29.607 22.2193 29.2201L27.9686 25.2284ZM33.2566 15.2817H14.7434C13.7889 15.2817 12.9229 15.6697 12.2982 16.2958L12.2941 16.3C11.6684 16.9249 11.2805 17.7913 11.2805 18.7463V30.2531C11.2805 31.184 11.6484 32.03 12.2455 32.6508L12.2982 32.7C12.9258 33.3279 13.7918 33.7183 14.7434 33.7183H33.2566C34.2082 33.7183 35.0742 33.3279 35.7018 32.7C36.3311 32.0751 36.7195 31.2087 36.7195 30.2531V18.7463C36.7195 17.7943 36.3293 16.9278 35.7018 16.3C35.0771 15.6697 34.2111 15.2817 33.2566 15.2817Z" fill="white"/>
</svg>
