<svg width="22" height="20" viewBox="0 0 22 20" fill="none" xmlns="http://www.w3.org/2000/svg">
<path fill-rule="evenodd" clip-rule="evenodd" d="M16.1452 0.861961C17.3753 -0.282939 19.3751 -0.287984 20.6122 0.850893C21.8484 1.98944 21.8537 3.84075 20.6243 4.98467L15.2269 10.0023L20.63 15.0244C21.8493 16.1602 21.8328 17.9998 20.593 19.1338C19.3529 20.2673 17.3592 20.2644 16.1402 19.1288L10.774 14.1413L5.39776 19.138C4.16761 20.2829 2.1678 20.288 0.930725 19.1491C-0.305461 18.0106 -0.310966 16.1592 0.918649 15.0153L6.31606 9.99772L0.913144 4.9754C-0.306349 3.83961 -0.289655 2.00002 0.950082 0.86603C2.19017 -0.267313 4.18395 -0.264546 5.40291 0.871076L10.7691 5.85873L16.1452 0.861961Z" fill="#FF0000"/>
</svg>
