<svg width="18" height="17" viewBox="0 0 18 17" fill="none" xmlns="http://www.w3.org/2000/svg">
<path fill-rule="evenodd" clip-rule="evenodd" d="M13.2755 5.38674H15.971V4.94616C15.5491 3.25173 14.4768 3.26278 13.151 3.27699C12.9327 3.28015 12.7349 3.28173 12.7232 3.28173H2.64719C2.41572 3.28173 2.22821 3.0796 2.22821 2.83009C2.22821 2.58059 2.41572 2.37845 2.64719 2.37845H12.7232C13.0206 2.37845 13.0836 2.37845 13.1436 2.37688C14.2775 2.36424 15.2678 2.35319 15.971 3.06855V2.86168C15.971 2.35635 15.7791 1.89839 15.47 1.56519C15.1609 1.23199 14.7346 1.02512 14.2673 1.02512H2.54025C2.07146 1.02512 1.64662 1.23199 1.33751 1.56519C1.0284 1.89839 0.836494 2.35793 0.836494 2.86168V13.3852C0.836494 13.8905 1.0284 14.3485 1.33751 14.6817C1.64662 15.0149 2.07292 15.2217 2.54025 15.2217H14.2658C14.7346 15.2217 15.1594 15.0149 15.4685 14.6817C15.7777 14.3485 15.9696 13.8889 15.9696 13.3852V11.8913H13.274C12.461 11.8913 11.7212 11.5328 11.1865 10.9564C10.6517 10.38 10.3192 9.58256 10.3192 8.70613V8.56874C10.3192 7.69231 10.6517 6.89484 11.1865 6.31845C11.7226 5.74521 12.461 5.38674 13.2755 5.38674ZM16.8075 5.40412C17.1108 5.45307 17.3818 5.60783 17.5883 5.83207C17.8432 6.10684 18 6.48584 18 6.90273V10.3137C18 10.7496 17.8359 11.1443 17.5708 11.4302C17.3671 11.6497 17.102 11.806 16.8075 11.866V13.3867C16.8075 14.14 16.5219 14.8254 16.0619 15.3212C15.6019 15.8171 14.9661 16.125 14.2673 16.125H2.54025C1.84146 16.125 1.20566 15.8171 0.745666 15.3212C0.285668 14.8269 0 14.1416 0 13.3883V2.86326C0 2.11 0.285668 1.42464 0.745666 0.92879C1.20566 0.432935 1.84146 0.125 2.54025 0.125H14.2658C14.9646 0.125 15.6004 0.432935 16.0604 0.92879C16.5204 1.42464 16.8061 2.11 16.8061 2.86326V5.40412H16.8075ZM12.9122 7.40648C13.5055 7.40648 13.986 7.92445 13.986 8.564C13.986 9.20356 13.5055 9.72153 12.9122 9.72153C12.3189 9.72153 11.8384 9.20356 11.8384 8.564C11.8384 7.92445 12.3189 7.40648 12.9122 7.40648Z" fill="#FCAB26"/>
</svg>
