<svg width="48" height="48" viewBox="0 0 48 48" fill="none" xmlns="http://www.w3.org/2000/svg">
<rect width="48" height="48" rx="24" fill="#FF7A00"/>
<path fill-rule="evenodd" clip-rule="evenodd" d="M30.9132 19.8926H34.9565V19.2317C34.3237 16.6901 32.7151 16.7067 30.7265 16.728C30.399 16.7327 30.1024 16.7351 30.0848 16.7351H14.9708C14.6236 16.7351 14.3423 16.4319 14.3423 16.0576C14.3423 15.6834 14.6236 15.3802 14.9708 15.3802H30.0848C30.5309 15.3802 30.6254 15.3802 30.7155 15.3778C32.4163 15.3589 33.9018 15.3423 34.9565 16.4153V16.105C34.9565 15.347 34.6687 14.6601 34.205 14.1603C33.7414 13.6605 33.1019 13.3502 32.4009 13.3502H14.8104C14.1072 13.3502 13.4699 13.6605 13.0063 14.1603C12.5426 14.6601 12.2547 15.3494 12.2547 16.105V31.8902C12.2547 32.6482 12.5426 33.3352 13.0063 33.835C13.4699 34.3348 14.1094 34.6451 14.8104 34.6451H32.3987C33.1019 34.6451 33.7392 34.3348 34.2028 33.835C34.6665 33.3352 34.9543 32.6459 34.9543 31.8902V29.6494H30.911C29.6915 29.6494 28.5818 29.1117 27.7797 28.2471C26.9776 27.3825 26.4788 26.1863 26.4788 24.8717V24.6656C26.4788 23.351 26.9776 22.1548 27.7797 21.2902C28.584 20.4303 29.6915 19.8926 30.9132 19.8926ZM36.2113 19.9187C36.6662 19.9921 37.0727 20.2242 37.3825 20.5606C37.7649 20.9728 38 21.5413 38 22.1666V27.2831C38 27.9368 37.7539 28.529 37.3561 28.9578C37.0507 29.287 36.653 29.5215 36.2113 29.6115V31.8926C36.2113 33.0225 35.7828 34.0505 35.0928 34.7943C34.4028 35.5381 33.4491 36 32.4009 36H14.8104C13.7622 36 12.8085 35.5381 12.1185 34.7943C11.4285 34.0529 11 33.0249 11 31.895V16.1074C11 14.9775 11.4285 13.9495 12.1185 13.2057C12.8085 12.4619 13.7622 12 14.8104 12H32.3987C33.4469 12 34.4006 12.4619 35.0906 13.2057C35.7806 13.9495 36.2091 14.9775 36.2091 16.1074V19.9187H36.2113ZM30.3683 22.9222C31.2582 22.9222 31.979 23.6992 31.979 24.6585C31.979 25.6178 31.2582 26.3948 30.3683 26.3948C29.4783 26.3948 28.7575 25.6178 28.7575 24.6585C28.7575 23.6992 29.4783 22.9222 30.3683 22.9222Z" fill="white"/>
</svg>
