<svg width="25" height="28" viewBox="0 0 25 28" fill="none" xmlns="http://www.w3.org/2000/svg">
<path d="M1.12494 2.06395H8.82382V1.41273V1.40976C8.82382 1.38812 8.82428 1.36738 8.82705 1.34619C8.84436 0.98344 9.00296 0.654183 9.24627 0.415159L9.24466 0.413564C9.49952 0.162008 9.85341 0.00569648 10.2431 0.00205073L10.2484 0.00250645V0H10.2556H14.8458H14.8495C14.874 0 14.8973 0.00205073 14.9208 0.0050129C15.2863 0.0241531 15.6178 0.178186 15.859 0.417438C16.1134 0.668994 16.2713 1.01785 16.2752 1.40065L16.2745 1.40543H16.2778V1.41273V2.06372H23.8748H23.8788C23.9106 2.06372 23.9406 2.06691 23.9713 2.07147C24.2442 2.09562 24.4917 2.21388 24.6717 2.39275L24.6727 2.39434L24.6738 2.39275C24.8703 2.58802 24.9938 2.8594 24.9972 3.16018L24.9968 3.16747H25V3.17476V5.64224C25 5.97765 24.7241 6.24949 24.3843 6.24949H24.3682H0.61568C0.275867 6.24926 0 5.97742 0 5.64224V5.62789V3.17476V3.17157C0 3.14742 0.000923404 3.12349 0.00415532 3.09979V3.09501C0.024701 2.81998 0.148206 2.57002 0.332425 2.3891L0.330809 2.38865C0.529803 2.19246 0.80567 2.07055 1.11039 2.06645L1.11778 2.06691V2.06395H1.12494ZM17.9579 11.1872H16.5855V23.9685H17.9579V11.1872ZM13.4955 11.1872H12.1224V23.9685H13.4955V11.1872ZM9.0332 11.1872H7.66056V23.9685H9.0332V11.1872ZM2.50173 7.19328H22.6746L22.739 7.19738L22.7684 7.19898L22.7993 7.20148H22.8014L22.839 7.20672C23.1537 7.24387 23.448 7.38651 23.6636 7.59591C23.9037 7.82946 24.0572 8.14619 24.0572 8.49914C24.0572 8.52147 24.0551 8.54312 24.0528 8.56431L24.0524 8.5798L24.0491 8.61489L22.3424 26.6921L22.3408 26.7019H22.3424L22.3388 26.7336L22.327 26.798L22.3261 26.8033C22.3134 26.8787 22.2984 26.9505 22.2778 27.0147L22.2762 27.0198L22.2737 27.025L22.2683 27.0391L22.2674 27.0439C22.2402 27.1246 22.2065 27.2029 22.1677 27.2738C21.9348 27.7022 21.5031 28 20.9663 28H4.18533L4.12831 27.9968H4.12577L4.11838 27.9959C4.01219 27.9907 3.91315 27.9752 3.82104 27.9499C3.72524 27.9234 3.63221 27.8847 3.54472 27.8371L3.54264 27.8366C3.13057 27.614 2.8554 27.1804 2.81038 26.6928L1.12655 8.61079L1.12401 8.58231L1.12147 8.52603L1.12055 8.4996C1.12055 8.14573 1.27268 7.82832 1.51346 7.59477C1.73877 7.37716 2.04903 7.23042 2.38054 7.20148L2.4087 7.20057V7.19898L2.47795 7.19601L2.50196 7.19647L2.50173 7.19328ZM22.6749 8.40868H2.50173V8.40709L2.47495 8.408C2.43732 8.41301 2.40062 8.43215 2.37384 8.45858C2.3593 8.47294 2.34983 8.48866 2.34983 8.49937H2.34822L2.34983 8.52626L4.03089 26.5827V26.5854C4.03828 26.6711 4.07752 26.7429 4.13408 26.7734L4.15301 26.7816L4.16755 26.7844H4.18533H20.967C21.0148 26.7844 21.0591 26.7486 21.0866 26.6985L21.106 26.6536L21.1185 26.6044L21.1217 26.5729L22.8275 8.52421L22.8268 8.49914C22.8268 8.48889 22.8173 8.47385 22.803 8.45995C22.7753 8.43306 22.737 8.41392 22.6989 8.40823L22.6749 8.40868ZM9.4388 3.27866H1.2309V5.03454H23.7689V3.27866H15.6764H15.6619C15.322 3.27866 15.0469 3.00706 15.0469 2.67165V1.41273V1.40543H15.0485C15.0469 1.35531 15.024 1.30677 14.9887 1.27214C14.9571 1.24001 14.9139 1.21996 14.8684 1.21472H14.8495H14.8458H10.2556H10.2484C10.1992 1.21631 10.151 1.23705 10.1154 1.27236H10.1129C10.0826 1.3029 10.0596 1.34368 10.0531 1.38652L10.0547 1.40976V1.41273V2.67142C10.0545 3.00683 9.77861 3.27866 9.4388 3.27866Z" fill="#FCAB26"/>
</svg>
