<svg width="48" height="48" viewBox="0 0 48 48" fill="none" xmlns="http://www.w3.org/2000/svg">
<rect width="48" height="48" rx="24" fill="#FF7A00"/>
<g clip-path="url(#clip0_40_1034)">
<path fill-rule="evenodd" clip-rule="evenodd" d="M18.3956 9.00001H29.5967C30.0432 8.99905 30.4856 9.08207 30.8985 9.24433C31.3114 9.40659 31.6866 9.64489 32.0027 9.9456C32.3189 10.2463 32.5697 10.6035 32.7408 10.9968C32.9119 11.39 33 11.8116 33 12.2373V35.7627C33 36.1885 32.9119 36.61 32.7408 37.0033C32.5697 37.3965 32.3189 37.7537 32.0027 38.0544C31.6866 38.3551 31.3114 38.5934 30.8985 38.7557C30.4856 38.9179 30.0432 39.001 29.5967 39H18.3956C17.9496 39.0003 17.5079 38.9168 17.0958 38.7542C16.6837 38.5917 16.3092 38.3532 15.9938 38.0525C15.6784 37.7519 15.4283 37.3949 15.2578 37.0019C15.0873 36.609 14.9997 36.1879 15 35.7627V12.2373C15 11.3787 15.3578 10.5553 15.9946 9.94819C16.6314 9.34108 17.4951 9.00001 18.3956 9.00001ZM18.3086 28.3799V25.7163C18.3086 25.5357 18.3839 25.3624 18.5178 25.2347C18.6518 25.1069 18.8336 25.0352 19.023 25.0352C19.2125 25.0352 19.3943 25.1069 19.5283 25.2347C19.6622 25.3624 19.7375 25.5357 19.7375 25.7163V27.6694C22.5766 27.6694 25.4149 27.6694 28.2522 27.6694V25.7163C28.2522 25.5357 28.3275 25.3624 28.4615 25.2347C28.5955 25.1069 28.7772 25.0352 28.9667 25.0352C29.1562 25.0352 29.3379 25.1069 29.4719 25.2347C29.6059 25.3624 29.6812 25.5357 29.6812 25.7163V28.3701C29.6733 28.5444 29.5956 28.7091 29.4641 28.8304C29.3326 28.9517 29.1573 29.0203 28.9744 29.022C25.6556 29.022 22.3393 29.022 19.0256 29.022C18.8427 29.0203 18.6674 28.9517 18.5359 28.8304C18.4044 28.7091 18.3267 28.5444 18.3188 28.3701L18.3086 28.3799ZM26.1447 22.5034C26.2119 22.4407 26.2915 22.3913 26.3788 22.3579C26.4661 22.3246 26.5594 22.3079 26.6535 22.3089C26.7475 22.31 26.8404 22.3286 26.9269 22.3639C27.0134 22.3991 27.0917 22.4503 27.1575 22.5144C27.2232 22.5785 27.2751 22.6544 27.3101 22.7376C27.3451 22.8208 27.3626 22.9098 27.3615 22.9995C27.3604 23.0891 27.3408 23.1777 27.3039 23.2602C27.2669 23.3426 27.2132 23.4173 27.146 23.48L24.4315 26.0313C24.2978 26.1571 24.1175 26.2277 23.9296 26.2277C23.7417 26.2277 23.5614 26.1571 23.4277 26.0313L20.7542 23.5142C20.6869 23.4515 20.6333 23.3768 20.5963 23.2943C20.5593 23.2119 20.5397 23.1233 20.5386 23.0337C20.5376 22.944 20.555 22.855 20.59 22.7718C20.625 22.6886 20.6769 22.6127 20.7426 22.5486C20.8084 22.4845 20.8867 22.4333 20.9732 22.3981C21.0597 22.3628 21.1526 22.3441 21.2467 22.3431C21.3407 22.3421 21.434 22.3588 21.5213 22.3921C21.6086 22.4255 21.6882 22.4749 21.7554 22.5376L23.2279 23.9292V19.0269C23.2388 18.8529 23.319 18.6896 23.452 18.5701C23.5851 18.4506 23.7609 18.3841 23.9437 18.3841C24.1264 18.3841 24.3023 18.4506 24.4353 18.5701C24.5683 18.6896 24.6485 18.8529 24.6594 19.0269L24.644 23.8877L26.1319 22.4863L26.1447 22.5034ZM32.1805 34.5542V12.3374H15.8143V34.5542H32.1805Z" fill="white"/>
</g>
<defs>
<clipPath id="clip0_40_1034">
<rect width="18" height="30" fill="white" transform="translate(15 9)"/>
</clipPath>
</defs>
</svg>
