<svg width="20" height="25" viewBox="0 0 20 25" fill="none" xmlns="http://www.w3.org/2000/svg">
<path d="M17.8027 13.1465L9.00806 13.1465C8.62958 13.1465 8.32274 12.857 8.32274 12.4999C8.32274 12.1426 8.62958 11.8531 9.00806 11.8531L17.8023 11.8531L14.9301 8.77998C14.6805 8.51346 14.7069 8.10635 14.9891 7.87075C15.2716 7.63495 15.703 7.65977 15.9528 7.92629L19.8286 12.0733C20.0606 12.3207 20.0545 12.6895 19.8262 12.9298L15.9525 17.0737C15.703 17.3404 15.2714 17.3653 14.9889 17.1292C14.7067 16.8937 14.6803 16.4863 14.9299 16.2198L17.8027 13.1465ZM15.4271 20.2697C15.4271 19.9125 15.7369 19.623 16.1191 19.623C16.5015 19.623 16.8114 19.9125 16.8114 20.2697V23.1673C16.8114 23.6708 16.59 24.1294 16.2348 24.4613C15.8791 24.7933 15.3883 25 14.8497 25H1.96189C1.42291 25 0.931839 24.7937 0.57622 24.4617C0.221254 24.13 0 23.6721 0 23.1673L0 1.8329C0 1.32834 0.220601 0.869962 0.575784 0.537928C0.930968 0.206097 1.4216 0 1.96189 0L14.8495 0C15.3894 0 15.8798 0.206707 16.235 0.538334C16.5906 0.870572 16.8112 1.32956 16.8112 1.8329V4.73026C16.8112 5.08732 16.5013 5.37683 16.1189 5.37683C15.7367 5.37683 15.4268 5.08732 15.4268 4.73026V1.8329C15.4268 1.68601 15.3613 1.55112 15.2559 1.45265C15.1509 1.35458 15.0068 1.29335 14.8493 1.29335L1.96189 1.29335C1.80379 1.29335 1.65941 1.35438 1.55466 1.45245C1.44948 1.55031 1.38436 1.68519 1.38436 1.8329L1.38436 23.1673C1.38436 23.3146 1.44991 23.4491 1.55488 23.5471C1.66028 23.6456 1.80466 23.7069 1.96189 23.7069H14.8495C15.0063 23.7069 15.1503 23.6454 15.2557 23.5469C15.3613 23.4485 15.4271 23.3138 15.4271 23.1673V20.2697Z" fill="#BE3033"/>
</svg>
