<svg width="90" height="85" viewBox="0 0 90 85" fill="none" xmlns="http://www.w3.org/2000/svg">
<g filter="url(#filter0_d_426_1286)">
<circle cx="45" cy="41" r="25" fill="#110E45"/>
<path fill-rule="evenodd" clip-rule="evenodd" d="M32.1099 28H56.8901C58.0513 28 59 29.0474 59 30.3293C59 31.6113 58.0513 32.6587 56.8901 32.6587H32.1099C30.9487 32.6587 30 31.6113 30 30.3293C30 29.0474 30.9487 28 32.1099 28ZM32.1099 48.3413H56.8901C58.0513 48.3413 59 49.3887 59 50.6707C59 51.9526 58.0513 53 56.8901 53H32.1099C30.9487 53 30 51.9526 30 50.6707C30 49.3887 30.9487 48.3413 32.1099 48.3413ZM32.1099 38.1694H56.8901C58.0513 38.1694 59 39.2168 59 40.4987C59 41.7806 58.0513 42.828 56.8901 42.828H32.1099C30.9487 42.828 30 41.7806 30 40.4987C30 39.2194 30.9487 38.1694 32.1099 38.1694Z" fill="white"/>
</g>
<defs>
<filter id="filter0_d_426_1286" x="0" y="0" width="90" height="90" filterUnits="userSpaceOnUse" color-interpolation-filters="sRGB">
<feFlood flood-opacity="0" result="BackgroundImageFix"/>
<feColorMatrix in="SourceAlpha" type="matrix" values="0 0 0 0 0 0 0 0 0 0 0 0 0 0 0 0 0 0 127 0" result="hardAlpha"/>
<feOffset dy="4"/>
<feGaussianBlur stdDeviation="10"/>
<feComposite in2="hardAlpha" operator="out"/>
<feColorMatrix type="matrix" values="0 0 0 0 0 0 0 0 0 0 0 0 0 0 0 0 0 0 0.25 0"/>
<feBlend mode="normal" in2="BackgroundImageFix" result="effect1_dropShadow_426_1286"/>
<feBlend mode="normal" in="SourceGraphic" in2="effect1_dropShadow_426_1286" result="shape"/>
</filter>
</defs>
</svg>
