<svg width="22" height="24" viewBox="0 0 22 24" fill="none" xmlns="http://www.w3.org/2000/svg">
<path d="M19.9914 20.7136H2.09898C1.67747 20.7136 1.26664 20.581 0.9247 20.3345C0.582763 20.088 0.327054 19.7402 0.193803 19.3403C0.060552 18.9404 0.0565145 18.5087 0.182263 18.1064C0.308011 17.7041 0.557168 17.3515 0.894435 17.0987L1.79653 16.4221C2.13602 16.1684 2.3638 15.7928 2.43189 15.3745L3.56369 8.50392C3.84003 6.71741 4.74653 5.08876 6.11926 3.9125C7.492 2.73625 9.24033 2.09005 11.0481 2.09076C12.8558 2.09147 14.6037 2.73906 15.9755 3.9164C17.3473 5.09374 18.2525 6.72311 18.5274 8.50984L19.6585 15.3745C19.7265 15.7928 19.9543 16.1684 20.2938 16.4221L21.1962 17.0987C21.5335 17.3515 21.7827 17.7041 21.9085 18.1065C22.0342 18.5089 22.0302 18.9406 21.8969 19.3406C21.7635 19.7405 21.5077 20.0883 21.1657 20.3348C20.8237 20.5812 20.4128 20.7138 19.9912 20.7136H19.9914ZM11.046 3.1866C9.49735 3.17909 7.99787 3.72991 6.82236 4.73812C5.64684 5.74634 4.87403 7.14441 4.64555 8.67612L3.51292 15.5525C3.39929 16.2496 3.01964 16.8754 2.4539 17.2982L1.55154 17.975C1.3982 18.09 1.28493 18.2502 1.22777 18.4331C1.1706 18.616 1.17245 18.8123 1.23305 18.9941C1.29364 19.1759 1.40991 19.334 1.56538 19.446C1.72085 19.558 1.90763 19.6183 2.09926 19.6182H19.9916C20.1832 19.6182 20.3699 19.558 20.5253 19.4459C20.6807 19.3339 20.797 19.1759 20.8576 18.9941C20.9182 18.8124 20.92 18.6162 20.8629 18.4334C20.8058 18.2505 20.6926 18.0903 20.5393 17.9753L19.6367 17.2982C19.071 16.8754 18.6913 16.2496 18.5777 15.5525L17.4456 8.68198C17.2182 7.14943 16.446 5.75019 15.2706 4.74084C14.0952 3.73149 12.5953 3.17968 11.046 3.1866Z" fill="black"/>
<path d="M12.6883 3.3838C12.543 3.3838 12.4037 3.32609 12.301 3.22337C12.1983 3.12066 12.1406 2.98134 12.1406 2.83608V2.09118C12.1406 1.80065 12.0252 1.52202 11.8197 1.31659C11.6143 1.11115 11.3357 0.995739 11.0451 0.995739C10.7546 0.995739 10.476 1.11115 10.2705 1.31659C10.0651 1.52202 9.94969 1.80065 9.94969 2.09118V2.83608C9.94969 2.98134 9.89198 3.12066 9.78927 3.22337C9.68655 3.32609 9.54723 3.3838 9.40197 3.3838C9.2567 3.3838 9.11739 3.32609 9.01467 3.22337C8.91195 3.12066 8.85425 2.98134 8.85425 2.83608V2.09118C8.85425 1.51012 9.08507 0.952862 9.49594 0.541993C9.90681 0.131123 10.4641 -0.0997009 11.0451 -0.0997009C11.6262 -0.0997009 12.1835 0.131123 12.5943 0.541993C13.0052 0.952862 13.236 1.51012 13.236 2.09118V2.83608C13.236 2.98134 13.1783 3.12066 13.0756 3.22337C12.9729 3.32609 12.8336 3.3838 12.6883 3.3838Z" fill="black"/>
<path d="M11.0452 24C10.0287 23.9988 9.05417 23.5945 8.33539 22.8758C7.61662 22.157 7.21231 21.1824 7.21118 20.1659C7.21118 20.0207 7.26889 19.8814 7.3716 19.7786C7.47432 19.6759 7.61364 19.6182 7.7589 19.6182C7.90416 19.6182 8.04348 19.6759 8.1462 19.7786C8.24891 19.8814 8.30662 20.0207 8.30662 20.1659C8.30662 20.8923 8.59515 21.5888 9.10874 22.1024C9.62232 22.616 10.3189 22.9045 11.0452 22.9045C11.7715 22.9045 12.4681 22.616 12.9817 22.1024C13.4953 21.5888 13.7838 20.8923 13.7838 20.1659C13.7838 20.0207 13.8415 19.8814 13.9442 19.7786C14.0469 19.6759 14.1863 19.6182 14.3315 19.6182C14.4768 19.6182 14.6161 19.6759 14.7188 19.7786C14.8215 19.8814 14.8792 20.0207 14.8792 20.1659C14.8781 21.1824 14.4738 22.157 13.755 22.8758C13.0363 23.5945 12.0617 23.9988 11.0452 24Z" fill="black"/>
</svg>
