<svg width="40" height="40" viewBox="0 0 40 40" fill="none" xmlns="http://www.w3.org/2000/svg">
<rect width="40" height="40" rx="5" fill="#FF9F02" fill-opacity="0.3"/>
<path d="M23.8508 30.3299C23.7658 30.7509 23.6165 31.1372 23.4006 31.4909C23.1778 31.8533 22.8862 32.181 22.5279 32.4675C22.1673 32.7539 21.7768 32.9709 21.3519 33.1163C20.9271 33.2617 20.4769 33.3333 20.0015 33.3333C19.5238 33.3333 19.0736 33.2595 18.651 33.1163C18.2284 32.9709 17.8357 32.7561 17.4774 32.4675C17.1168 32.1788 16.8274 31.8533 16.6046 31.4909C16.3818 31.1285 16.2303 30.7292 16.1476 30.2909C16.1062 30.0782 16.2578 29.8742 16.4829 29.8352C16.4898 29.8352 16.5564 29.8287 16.5564 29.8287H23.4512C23.6808 29.8287 23.8692 30.0044 23.8692 30.2236C23.8669 30.2605 23.86 30.2952 23.8508 30.3299ZM11.3084 6.72171C11.7287 6.56329 12.2041 6.7586 12.3718 7.15572C12.5394 7.55285 12.3327 8.00205 11.9124 8.16047C11.0029 8.50334 10.2404 8.97859 9.63177 9.59489C9.02543 10.2112 8.56838 10.9751 8.26981 11.893C8.1366 12.301 7.67725 12.531 7.24547 12.4051C6.81369 12.2793 6.57023 11.8453 6.70344 11.4373C7.07781 10.2871 7.65658 9.32363 8.43058 8.53806C9.20457 7.75466 10.1669 7.15138 11.3084 6.72171ZM28.0882 8.16047C27.6679 8.00205 27.4612 7.55285 27.6289 7.15572C27.7966 6.7586 28.272 6.56329 28.6923 6.72171C29.8337 7.15138 30.7961 7.75466 31.5701 8.54023C32.3441 9.32797 32.9251 10.2915 33.2972 11.4394C33.4304 11.8474 33.187 12.2814 32.7552 12.4073C32.3234 12.5332 31.8641 12.3031 31.7308 11.8952C31.4323 10.9751 30.9752 10.2112 30.3689 9.59706C29.7603 8.97859 28.9977 8.50334 28.0882 8.16047ZM23.1824 9.25852C23.651 9.4343 24.1011 9.6448 24.5329 9.89002C24.549 9.90087 24.5674 9.90955 24.5834 9.9204C24.9968 10.1613 25.3827 10.426 25.7364 10.7125C26.492 11.3266 27.1213 12.0471 27.6197 12.863C27.8678 13.271 28.0813 13.6963 28.2582 14.1347C28.4396 14.5882 28.5751 15.0505 28.667 15.5257C28.7566 16.0031 28.8025 16.4914 28.8025 16.9927C28.8025 17.9822 28.8025 18.5182 28.8025 18.5833C28.8048 19.0911 28.8071 19.5881 28.8117 20.072V20.0763C28.814 20.5147 28.8439 20.9552 28.9013 21.3957C28.9587 21.8319 29.0414 22.2529 29.1493 22.6587C29.2573 23.058 29.4043 23.4443 29.5857 23.8132C29.774 24.193 30.0037 24.5662 30.2724 24.9286H30.2747C30.5411 25.2845 30.8742 25.6382 31.2738 25.9855C31.6872 26.3435 32.1649 26.6972 32.7115 27.0401C33.0239 27.2376 33.1089 27.639 32.8976 27.9342C32.7667 28.1186 32.5508 28.2206 32.3303 28.2206V28.2228H26.1636H20.0015H13.8348H7.67036C7.2914 28.2228 6.98594 27.9342 6.98594 27.5761C6.98594 27.3417 7.11915 27.1356 7.31667 27.0227C7.87018 26.669 8.3456 26.3175 8.74293 25.9703C9.13797 25.6252 9.4687 25.2715 9.73512 24.9069C9.74201 24.8961 9.7512 24.8852 9.76038 24.8765C10.0176 24.5207 10.2381 24.1583 10.4195 23.7893C10.6056 23.4139 10.7549 23.0276 10.8651 22.6305C10.8674 22.6218 10.8697 22.6132 10.872 22.6066C10.9776 22.2204 11.058 21.8124 11.1132 21.3849C11.1683 20.9552 11.1981 20.5104 11.1981 20.0525V16.9927C11.1981 16.5001 11.2441 16.0118 11.3382 15.5235C11.4324 15.0374 11.5679 14.5709 11.7493 14.126C11.9285 13.6811 12.1444 13.2536 12.3947 12.8457C12.9 12.021 13.527 11.3071 14.2941 10.6886C14.6685 10.387 15.0727 10.1114 15.5068 9.86615C15.9455 9.61876 16.4002 9.41043 16.8687 9.24116C17.1949 9.12398 17.5325 9.02633 17.877 8.94603C17.9941 8.55759 18.1962 8.24293 18.4833 8.00205C18.8784 7.67003 19.3974 7.50511 20.0428 7.51162C20.6813 7.51596 21.1981 7.68305 21.5885 8.01507C22.9688 9.17606 21.2509 8.53806 23.1824 9.25852Z" fill="#FCAB26"/>
</svg>
