<svg width="27" height="25" viewBox="0 0 27 25" fill="none" xmlns="http://www.w3.org/2000/svg">
<path d="M1 20.875C1 19.2174 1.65694 17.6277 2.82631 16.4556C3.99567 15.2835 5.58167 14.625 7.2354 14.625H19.7062C21.3599 14.625 22.9459 15.2835 24.1153 16.4556C25.2846 17.6277 25.9416 19.2174 25.9416 20.875C25.9416 21.7038 25.6131 22.4987 25.0284 23.0847C24.4438 23.6708 23.6508 24 22.8239 24H4.1177C3.29083 24 2.49783 23.6708 1.91315 23.0847C1.32847 22.4987 1 21.7038 1 20.875Z" stroke="#110101" stroke-width="1.5" stroke-linejoin="round"/>
<path d="M13.4707 10.375C16.0535 10.375 18.1473 8.27633 18.1473 5.6875C18.1473 3.09867 16.0535 1 13.4707 1C10.888 1 8.79419 3.09867 8.79419 5.6875C8.79419 8.27633 10.888 10.375 13.4707 10.375Z" stroke="#110101" stroke-width="1.5"/>
</svg>
