<svg width="25" height="28" viewBox="0 0 25 28" fill="none" xmlns="http://www.w3.org/2000/svg">
<path fill-rule="evenodd" clip-rule="evenodd" d="M12.4572 0C17.1186 3.01136 21.33 4.43558 24.9437 4.09935C25.5751 17.1098 20.8606 24.7935 12.5055 28C4.43685 24.9985 -0.335658 17.6456 0.0184172 3.90143C4.26088 4.12778 8.42341 3.19342 12.4572 0ZM10.2233 13.7704C10.5064 14.015 10.7734 14.2784 11.0226 14.5588C11.8038 13.2772 12.6369 12.1007 13.5162 11.0187C16.0033 7.95759 14.8762 8.54751 18.3257 8.54751L17.8466 9.09041C16.3735 10.7579 15.8767 11.6267 14.6691 13.4041C13.4615 15.1837 12.3821 17.0201 11.4213 18.9101L11.123 19.4979L10.8483 18.8998C10.3419 17.791 9.73456 16.7741 9.01139 15.8649C8.28768 14.9557 7.65571 14.363 6.6745 13.6769C7.12406 12.1728 9.26407 12.9426 10.2233 13.7704ZM12.4652 2.16722C16.3311 4.66412 20.0419 6.06811 23.0387 5.78873C23.5623 16.5784 19.4341 23.173 12.506 25.8322C5.81399 23.3435 1.63804 17.0234 1.9315 5.62526C5.81452 5.83247 9.37298 4.61546 12.4652 2.16722Z" fill="#FCAB26"/>
</svg>
