<svg width="35" height="35" viewBox="0 0 35 35" fill="none" xmlns="http://www.w3.org/2000/svg">
<circle cx="17.5" cy="17.5" r="17.5" fill="#FF0000"/>
<path fill-rule="evenodd" clip-rule="evenodd" d="M22.1566 8.97118C23.2225 7.90261 24.9553 7.8979 26.0273 8.96085C27.0984 10.0235 27.103 11.7514 26.0377 12.8191L21.3609 17.5021L26.0426 22.1895C27.0992 23.2496 27.0849 24.9665 26.0106 26.0249C24.9361 27.0828 23.2085 27.0801 22.1523 26.0202L17.5026 21.3652L12.8441 26.0289C11.7782 27.0974 10.0454 27.1021 8.97346 26.0392C7.90231 24.9765 7.89754 23.2487 8.96299 22.181L13.6398 17.4979L8.95822 12.8104C7.90154 11.7503 7.91601 10.0334 8.99023 8.97498C10.0648 7.91719 11.7923 7.91978 12.8486 8.97969L17.4983 13.6348L22.1566 8.97118Z" fill="white"/>
</svg>
