<svg width="24" height="24" viewBox="0 0 24 24" fill="none" xmlns="http://www.w3.org/2000/svg">
<path d="M19.136 3.65329C19.0715 3.58884 19.0051 3.54235 18.9368 3.51345C18.8727 3.4863 18.7979 3.47302 18.7122 3.47302C18.626 3.47302 18.5497 3.48669 18.4848 3.51423C18.4176 3.54255 18.3528 3.58825 18.2907 3.65134L18.2866 3.65544L17.0743 4.86402C16.8926 5.04469 16.612 5.0648 16.4083 4.92516C16.2657 4.83297 16.1137 4.7441 15.9544 4.65797C15.7854 4.56657 15.6198 4.48453 15.4581 4.41032C15.2895 4.33336 15.1175 4.2609 14.9423 4.19293C14.7835 4.13122 14.6065 4.06833 14.4136 4.00465C14.1927 3.9318 14.0522 3.72634 14.0522 3.50544V1.64647C14.0522 1.55741 14.0382 1.4787 14.0102 1.41014C13.9823 1.34237 13.9397 1.27929 13.8809 1.22069C13.8237 1.16347 13.7616 1.12108 13.6936 1.09355C13.6253 1.06562 13.5464 1.05175 13.4571 1.05175H11.1241C11.0415 1.05175 10.9683 1.06503 10.9042 1.09159C10.8362 1.11952 10.7696 1.16522 10.7038 1.2289L10.703 1.22948C10.6452 1.28729 10.6026 1.34882 10.5753 1.41425C10.5472 1.48124 10.5331 1.55858 10.5331 1.64647V3.34841C10.5331 3.6072 10.3462 3.82223 10.1001 3.86618C9.9132 3.91071 9.74055 3.9568 9.58332 4.00505C9.41106 4.05778 9.23782 4.11774 9.06418 4.18551C9.05559 4.18883 9.047 4.19196 9.0384 4.19469C8.88665 4.25368 8.72669 4.32204 8.55872 4.39957C8.38802 4.47828 8.22904 4.55817 8.08177 4.63844C7.87416 4.75152 7.62377 4.70953 7.46361 4.55192L7.46342 4.55211L6.12085 3.22888C6.11675 3.22478 6.11265 3.22068 6.10854 3.21658C6.05132 3.15603 5.99116 3.11189 5.92808 3.08435C5.86753 3.05798 5.79585 3.04451 5.71226 3.04451C5.62925 3.04451 5.55503 3.05857 5.4898 3.0865C5.41832 3.11697 5.34996 3.16462 5.28433 3.22888L5.28394 3.22927L3.65524 4.86168L3.65427 4.86285L3.65524 4.86383C3.58845 4.93062 3.54118 4.99703 3.51325 5.06305C3.4861 5.12711 3.47263 5.20191 3.47263 5.28746C3.47263 5.37378 3.4863 5.44996 3.51384 5.51519C3.54216 5.58218 3.58767 5.64702 3.65095 5.70913L3.65505 5.71324L4.86363 6.92572C5.0443 7.10736 5.06441 7.38803 4.92477 7.59174C4.83258 7.73451 4.74371 7.88626 4.65777 8.04564C4.56637 8.21478 4.48434 8.38001 4.41012 8.54212C4.33297 8.71048 4.26051 8.88274 4.19235 9.05793C4.13063 9.21653 4.06794 9.39348 4.00426 9.58645C3.93141 9.80754 3.72575 9.94777 3.50505 9.94777L1.64667 9.94797C1.55721 9.94797 1.4787 9.96183 1.41014 9.98957C1.34257 10.0173 1.28007 10.0595 1.22304 10.1167L1.22089 10.1191C1.16366 10.1763 1.12128 10.2386 1.09355 10.3062C1.06562 10.3747 1.05194 10.4534 1.05194 10.5427V12.8759C1.05194 12.9583 1.06503 13.0317 1.09159 13.0956C1.11972 13.1636 1.16542 13.2302 1.22909 13.2962L1.22968 13.2966C1.28729 13.3544 1.34901 13.3972 1.41425 13.4243C1.48143 13.4524 1.55878 13.4665 1.64667 13.4665H3.34841C3.6072 13.4665 3.82223 13.6534 3.86618 13.8997C3.91071 14.0864 3.9568 14.2593 4.00505 14.4165C4.05798 14.5887 4.11774 14.7618 4.18551 14.9354C4.24918 15.1009 4.32145 15.2727 4.40192 15.4509C4.48414 15.6331 4.56461 15.7991 4.64274 15.9493C4.75152 16.1575 4.70641 16.4055 4.54781 16.5631L4.54821 16.5635L3.22478 17.8831L3.21638 17.8913C3.15583 17.9487 3.11169 18.0088 3.08435 18.0717C3.05779 18.1323 3.04451 18.2041 3.04451 18.2877C3.04451 18.3708 3.05857 18.4448 3.0863 18.51C3.11677 18.5815 3.16443 18.65 3.22888 18.7155L4.85172 20.3571C4.91519 20.4158 4.98141 20.4588 5.05074 20.486C5.12027 20.5135 5.19918 20.527 5.28746 20.527C5.37652 20.527 5.45679 20.5131 5.52749 20.4852C5.59546 20.4584 5.65933 20.4174 5.71851 20.3619L6.92143 19.1399C7.10287 18.9555 7.38705 18.9334 7.59291 19.0756C7.73529 19.1674 7.88665 19.2559 8.04564 19.3416C8.21478 19.4332 8.38001 19.5153 8.54212 19.5893C8.71048 19.6666 8.88274 19.7391 9.05793 19.8071C9.21653 19.8686 9.39328 19.9315 9.58645 19.9952C9.80754 20.068 9.94777 20.2737 9.94777 20.4944L9.94797 22.3533C9.94797 22.4424 9.96183 22.5211 9.98976 22.5897C10.0175 22.6574 10.0597 22.7197 10.1169 22.777L10.1179 22.7781L10.1189 22.777C10.2335 22.8916 10.3741 22.9481 10.5425 22.9481H12.8753C12.9581 22.9481 13.0313 22.935 13.0954 22.9084C13.1634 22.8803 13.23 22.8346 13.2956 22.7709L13.2964 22.7703C13.354 22.7125 13.3968 22.651 13.4241 22.5858C13.4524 22.5186 13.4665 22.4414 13.4665 22.3535V20.6514C13.4665 20.3928 13.653 20.1776 13.8995 20.1338C14.086 20.0893 14.2589 20.043 14.4163 19.995C14.5884 19.942 14.7616 19.8823 14.935 19.8147C15.1007 19.7508 15.2727 19.6786 15.4512 19.5981C15.6329 19.5159 15.7991 19.4356 15.9487 19.3575C16.1573 19.2487 16.4053 19.294 16.563 19.4524L16.5633 19.452L17.8829 20.7752L17.8909 20.7836C17.9489 20.8446 18.009 20.8885 18.0717 20.9158C18.1331 20.9422 18.2071 20.9557 18.2954 20.9557C18.3819 20.9557 18.4571 20.9416 18.5219 20.9137C18.5872 20.8854 18.6479 20.8418 18.7032 20.7834C18.7092 20.7768 18.7157 20.7703 18.7227 20.7639L20.3573 19.1483C20.4157 19.085 20.4588 19.0186 20.4858 18.9493C20.5133 18.8797 20.527 18.8006 20.527 18.7123C20.527 18.6233 20.5133 18.543 20.4854 18.4723C20.4582 18.4043 20.4174 18.3407 20.3617 18.2815L19.1399 17.0784C18.9553 16.8969 18.9334 16.613 19.0754 16.4069C19.1674 16.2645 19.2559 16.1131 19.3416 15.9544C19.4332 15.7854 19.5153 15.62 19.5893 15.4579C19.6664 15.2895 19.7389 15.1173 19.8071 14.9421C19.8684 14.7835 19.9315 14.6065 19.9952 14.4134C20.068 14.1923 20.2737 14.052 20.4946 14.052L22.3531 14.0518C22.4424 14.0518 22.5213 14.038 22.5897 14.01C22.6572 13.9823 22.7197 13.9401 22.777 13.8831L22.7789 13.8809C22.8361 13.8235 22.8789 13.7612 22.9063 13.6934C22.9342 13.6251 22.9479 13.5464 22.9479 13.4571V11.1239C22.9479 11.0415 22.935 10.9681 22.9082 10.904C22.8803 10.8362 22.8346 10.7694 22.7709 10.7034L22.7701 10.7028C22.7125 10.645 22.6508 10.6025 22.5856 10.5751C22.5188 10.547 22.4414 10.5329 22.3533 10.5329H20.6516C20.3895 10.5329 20.1725 10.3417 20.1325 10.0911C20.0912 9.92648 20.0448 9.75949 19.992 9.58996C19.9412 9.42727 19.8819 9.2552 19.8123 9.07336C19.8088 9.06458 19.8059 9.05559 19.8032 9.04661C19.7371 8.87376 19.6696 8.71126 19.6002 8.55911C19.525 8.39446 19.4454 8.23528 19.361 8.08138C19.2481 7.87376 19.2901 7.62338 19.4475 7.46322V7.46303L20.7707 6.12046C20.7748 6.11636 20.7787 6.11226 20.783 6.10815C20.8438 6.05093 20.8879 5.99077 20.9155 5.92788C20.9418 5.86734 20.9555 5.79566 20.9555 5.71206C20.9555 5.62906 20.9414 5.55484 20.9135 5.4896C20.883 5.41812 20.8354 5.34976 20.7709 5.28414L20.7705 5.28375L19.1379 3.65505L19.136 3.65329ZM19.3434 2.54764C19.5391 2.63025 19.7168 2.75115 19.877 2.9113L19.8774 2.9115L21.5143 4.54469L21.5184 4.54879C21.676 4.70895 21.7965 4.88531 21.8789 5.07867C21.9641 5.27808 22.007 5.48921 22.007 5.71206C22.007 5.93823 21.9631 6.14956 21.8766 6.34702C21.7922 6.54077 21.669 6.71303 21.5096 6.86518L20.4614 7.92865C20.4922 7.9929 20.5231 8.05794 20.553 8.12376C20.6369 8.30696 20.7139 8.49056 20.7838 8.67434C20.7877 8.68255 20.791 8.69095 20.7942 8.69954C20.8639 8.88255 20.9307 9.07708 20.9944 9.28176C21.0149 9.34778 21.0348 9.41418 21.0539 9.48117H22.3531C22.5789 9.48117 22.7902 9.52258 22.9883 9.60539C23.1828 9.68684 23.3586 9.80695 23.5154 9.96496L23.5266 9.97609C23.6811 10.1359 23.7982 10.312 23.8779 10.5054C23.9596 10.7021 24 10.9081 24 11.1239V13.4569C24 13.6813 23.9604 13.8915 23.8803 14.0878C23.8002 14.2837 23.6809 14.4616 23.5213 14.6216L23.5205 14.6221L23.5193 14.6235L23.5186 14.6243C23.3584 14.7839 23.1807 14.9036 22.9842 14.9837C22.7877 15.0636 22.5776 15.1034 22.3533 15.1034H20.8672C20.8412 15.1733 20.8143 15.2456 20.7852 15.3194C20.7108 15.5106 20.6303 15.7018 20.543 15.8928C20.4526 16.0903 20.3606 16.2768 20.2668 16.4508C20.236 16.5079 20.2043 16.5647 20.1719 16.6215L21.0996 17.5348C21.1065 17.5413 21.1129 17.5477 21.1199 17.5547C21.2721 17.7157 21.3865 17.8944 21.4637 18.0897C21.541 18.2858 21.5793 18.4936 21.5793 18.712C21.5793 18.9295 21.5412 19.1356 21.4645 19.3309C21.3877 19.5256 21.2744 19.7036 21.1239 19.8649C21.1186 19.8703 21.1131 19.876 21.1074 19.8815L19.461 21.509C19.3065 21.6709 19.1325 21.7947 18.9372 21.8787C18.7399 21.9639 18.5266 22.007 18.2959 22.007C18.0702 22.007 17.8573 21.9629 17.6573 21.8768C17.4592 21.791 17.2842 21.667 17.1317 21.5061L16.088 20.4596C16.0182 20.4932 15.9499 20.525 15.8835 20.5551C15.7057 20.6352 15.5157 20.7143 15.3139 20.7922C15.1243 20.866 14.9264 20.9342 14.7212 20.9971C14.6528 21.018 14.5854 21.0379 14.519 21.0569V22.3533C14.519 22.5789 14.4774 22.7904 14.3946 22.9883C14.313 23.183 14.1932 23.3586 14.0348 23.5156L14.0237 23.527C13.864 23.6811 13.6876 23.798 13.4946 23.8781C13.2977 23.9596 13.0917 24 12.8759 24H10.5427C10.0839 24 9.69641 23.8418 9.37531 23.5207L9.37629 23.5197C9.21614 23.3594 9.09602 23.1811 9.01594 22.9844C8.93587 22.7879 8.89602 22.5779 8.89602 22.3535V20.8674C8.8259 20.8414 8.75384 20.8143 8.67981 20.7854C8.4888 20.711 8.29759 20.6305 8.10658 20.543C7.90912 20.4528 7.72259 20.3606 7.54838 20.2666C7.49154 20.236 7.43471 20.2043 7.37787 20.1719L6.4646 21.0996C6.45815 21.1065 6.45151 21.1131 6.44467 21.1198C6.28374 21.2723 6.10503 21.3867 5.90972 21.4637C5.71363 21.541 5.50582 21.5795 5.28746 21.5795C5.06988 21.5795 4.86363 21.5414 4.66852 21.4645C4.47379 21.3877 4.29606 21.2744 4.13454 21.124L4.13473 21.1237C4.12907 21.1186 4.1234 21.1131 4.11813 21.1074L2.48123 19.4516C2.32381 19.2914 2.2033 19.1149 2.12088 18.9215C2.03592 18.7219 1.99276 18.511 1.99276 18.2883C1.99276 18.0622 2.0367 17.8508 2.12303 17.6532C2.20838 17.4581 2.33221 17.2848 2.49353 17.1317L3.54021 16.088C3.50661 16.0182 3.47458 15.9499 3.4445 15.8829C3.36423 15.7053 3.28533 15.5157 3.20759 15.3141C3.13376 15.1245 3.0654 14.9266 3.00251 14.7212C2.98162 14.6526 2.96169 14.5854 2.94275 14.519H1.64667C1.42089 14.519 1.20937 14.4774 1.01171 14.3946C0.81679 14.3132 0.641206 14.1932 0.484371 14.035L0.473043 14.0233C0.318747 13.8638 0.201756 13.6874 0.121874 13.4942C0.0404294 13.2974 0 13.0913 0 12.8759V10.5427C0 10.3183 0.0398434 10.1081 0.119921 9.91183C0.199998 9.71555 0.319333 9.53762 0.479098 9.37766L0.479293 9.37746L0.480465 9.37649L0.481441 9.37551C0.641596 9.21575 0.819329 9.09622 1.01581 9.01614C1.2121 8.93606 1.42225 8.89641 1.64667 8.89641H3.13279C3.15857 8.8263 3.18591 8.75423 3.21482 8.6802C3.28904 8.48919 3.3697 8.29798 3.4572 8.10677C3.54743 7.90931 3.63942 7.72279 3.73356 7.54877C3.76481 7.49076 3.79723 7.43275 3.83044 7.37474L2.91619 6.45756L2.9158 6.45737C2.75427 6.29858 2.63201 6.11987 2.54861 5.92241C2.46326 5.72085 2.42107 5.50874 2.42107 5.28785C2.42107 5.06734 2.46307 4.85719 2.54783 4.6566C2.63181 4.45797 2.75291 4.27926 2.9117 4.12047L2.91267 4.12145L4.54469 2.48553L4.54879 2.48143C4.70895 2.324 4.88531 2.2035 5.07867 2.12108C5.27828 2.03612 5.48921 1.99276 5.71206 1.99276C5.93804 1.99276 6.14936 2.0367 6.34702 2.12303C6.54077 2.2076 6.71303 2.33065 6.86518 2.49021L7.92787 3.53747C7.99173 3.50583 8.0554 3.47556 8.11888 3.44626C8.28236 3.37087 8.46282 3.2949 8.66028 3.21833C8.66868 3.21443 8.67727 3.21091 8.68587 3.20759C8.87551 3.13376 9.07356 3.0654 9.27903 3.00251C9.34739 2.98162 9.41477 2.96169 9.48117 2.94275V1.64647C9.48117 1.42089 9.52277 1.20937 9.60559 1.01171C9.68703 0.81679 9.80715 0.641206 9.96515 0.484176L9.97629 0.473043C10.1361 0.318747 10.3122 0.201951 10.5054 0.122069C10.7023 0.0404294 10.9083 0 11.1241 0H13.4569C13.6811 0 13.8915 0.0396481 14.0878 0.119726C14.285 0.200194 14.4636 0.32031 14.6245 0.481051C14.7835 0.640424 14.9034 0.818548 14.9839 1.01562C15.0639 1.2119 15.1036 1.42206 15.1036 1.64628V3.13259C15.1737 3.15857 15.2456 3.18591 15.3198 3.21462C15.5106 3.28884 15.7016 3.3695 15.8928 3.45681C16.0905 3.54704 16.277 3.63923 16.4508 3.73337C16.5092 3.76481 16.5672 3.79704 16.6253 3.83024L17.5422 2.91599L17.5426 2.9158C17.7014 2.75427 17.8803 2.63201 18.0774 2.54861C18.2791 2.46326 18.4909 2.42107 18.7118 2.42107C18.9327 2.42107 19.1428 2.46287 19.3434 2.54764ZM11.9999 6.90346C12.3478 6.90346 12.6872 6.93666 13.0183 7.00268C13.3436 7.06772 13.6663 7.16752 13.9856 7.30228L13.9891 7.30385L13.9899 7.30228C14.2948 7.43392 14.5839 7.59115 14.8573 7.77435C15.1282 7.9558 15.3792 8.16068 15.6092 8.3886L15.6112 8.39075C15.8393 8.62102 16.0442 8.8718 16.2256 9.14289C16.4089 9.41633 16.5659 9.70539 16.6975 10.0103C16.7036 10.0247 16.709 10.0392 16.7139 10.0538C16.8401 10.3603 16.9348 10.6694 16.9969 10.9817C17.0633 11.313 17.0961 11.6522 17.0961 11.9999C17.0961 12.3478 17.0633 12.6872 16.9969 13.0183C16.9321 13.3438 16.8321 13.6661 16.6975 13.9856L16.696 13.9891L16.6975 13.9899C16.5659 14.2948 16.4087 14.5837 16.2256 14.8571C16.044 15.1282 15.8391 15.379 15.6112 15.6092L15.6092 15.6114C15.3788 15.8395 15.1282 16.0444 14.8569 16.2258C14.5839 16.409 14.2946 16.5661 13.9899 16.6977C13.9755 16.7038 13.961 16.7094 13.946 16.7141C13.6397 16.8405 13.3304 16.935 13.0183 16.9973C12.6872 17.0635 12.3476 17.0965 11.9999 17.0965C11.6521 17.0965 11.3128 17.0635 10.9817 16.9973C10.6562 16.9323 10.3337 16.8323 10.0142 16.6977L10.0107 16.6962L10.0101 16.6977C9.70519 16.5661 9.41594 16.4089 9.1427 16.2258C8.87161 16.0444 8.62083 15.8395 8.39075 15.6114L8.3888 15.6092C8.16068 15.3788 7.9556 15.1282 7.77435 14.8569C7.59134 14.5837 7.43412 14.2944 7.30268 13.9899C7.29643 13.9755 7.29096 13.961 7.28607 13.9462C7.15971 13.6397 7.06518 13.3306 7.00287 13.0183C6.93686 12.6872 6.90366 12.3478 6.90366 11.9999C6.90366 11.6521 6.93666 11.3128 7.00287 10.9817C7.06791 10.6562 7.16791 10.3337 7.30268 10.0144L7.30404 10.0109L7.30268 10.0103C7.43412 9.70539 7.59154 9.41633 7.77435 9.14309C7.9558 8.8718 8.16068 8.62122 8.3888 8.39075L8.39095 8.3888C8.62102 8.16087 8.8718 7.95599 9.1427 7.77455C9.41613 7.59154 9.70539 7.43412 10.0103 7.30248C10.0247 7.29623 10.0392 7.29076 10.054 7.28607C10.3605 7.15971 10.6694 7.06537 10.9817 7.00307C11.3128 6.93666 11.6521 6.90346 11.9999 6.90346ZM12.8128 8.03392C12.5503 7.98138 12.2796 7.95521 11.9999 7.95521C11.7204 7.95521 11.4497 7.98138 11.187 8.03392C10.9319 8.0849 10.6884 8.15794 10.4564 8.25306C10.4462 8.25814 10.4359 8.26322 10.4251 8.26771C10.1716 8.37728 9.9384 8.50306 9.7259 8.64524C9.51184 8.78841 9.31379 8.95051 9.13137 9.13098C8.95071 9.3136 8.7886 9.51203 8.64524 9.72629C8.50306 9.93859 8.37728 10.1716 8.2679 10.4251L8.26653 10.4245C8.16478 10.6661 8.08743 10.9204 8.03392 11.1872C7.98158 11.4497 7.9554 11.7204 7.9554 11.9999C7.9554 12.2794 7.98158 12.5501 8.03392 12.8128C8.0849 13.0679 8.15814 13.3114 8.25325 13.5434C8.25833 13.5538 8.26341 13.564 8.2679 13.5747C8.37728 13.8282 8.50306 14.061 8.64505 14.2733C8.78841 14.4876 8.95051 14.686 9.13137 14.8686C9.31379 15.0493 9.51203 15.2112 9.72609 15.3544C9.9384 15.4966 10.1714 15.6223 10.4251 15.7319L10.4245 15.7333C10.6663 15.835 10.9204 15.9126 11.1872 15.9657C11.4497 16.0182 11.7206 16.0442 12.0001 16.0442C12.2796 16.0442 12.5505 16.018 12.813 15.9657C13.0683 15.9147 13.3116 15.8417 13.5438 15.7466C13.5538 15.7415 13.5643 15.7364 13.5751 15.7319C13.8284 15.6223 14.0614 15.4966 14.2739 15.3544C14.488 15.2112 14.6862 15.0491 14.8686 14.8686C15.0495 14.686 15.2116 14.4878 15.355 14.2735C15.4969 14.0612 15.6227 13.8282 15.7319 13.5747L15.7335 13.5753C15.8352 13.3337 15.9128 13.0794 15.9661 12.8128C16.0184 12.5501 16.0446 12.2794 16.0446 11.9999C16.0446 11.7204 16.0182 11.4497 15.9661 11.1872C15.9149 10.9319 15.8421 10.6886 15.7467 10.4564C15.7415 10.4462 15.7368 10.4359 15.7319 10.4251C15.6227 10.1716 15.4969 9.93859 15.3546 9.72629C15.2116 9.51203 15.0493 9.3136 14.8686 9.13118C14.6862 8.95071 14.488 8.7886 14.2739 8.64544C14.0614 8.50325 13.8284 8.37747 13.5751 8.2679L13.5755 8.26653C13.3339 8.16478 13.0798 8.08724 12.8128 8.03392Z" fill="black"/>
</svg>
