<svg width="25" height="25" viewBox="0 0 25 25" fill="none" xmlns="http://www.w3.org/2000/svg">
<path d="M19.9599 4.23227e-07C20.7885 -0.000342084 21.6045 0.207208 22.3354 0.604258C23.0664 1.00131 23.6897 1.5756 24.1503 2.27625C24.6108 2.97689 24.8943 3.78225 24.9757 4.62097C25.057 5.45969 24.9337 6.30587 24.6166 7.08453C24.2995 7.86318 23.7985 8.55027 23.1579 9.08492C22.5174 9.61956 21.757 9.98524 20.9442 10.1496C20.1315 10.3139 19.2914 10.2718 18.4985 10.027C17.7055 9.78217 16.9842 9.34221 16.3984 8.7461C16.3537 8.70059 16.311 8.65508 16.2683 8.6075L9.93457 11.2967C10.0799 11.9022 10.1164 12.5294 10.0424 13.1481L16.4798 16.1993C17.3703 15.3395 18.5399 14.8418 19.7671 14.8004C20.9943 14.759 22.1937 15.1769 23.1382 15.9749C24.0827 16.7729 24.7066 17.8955 24.8916 19.13C25.0767 20.3645 24.81 21.6252 24.1423 22.6731C23.4745 23.7211 22.4519 24.4835 21.2684 24.8159C20.0848 25.1484 18.8225 25.0277 17.7206 24.4768C16.6186 23.9259 15.7537 22.9831 15.2896 21.8269C14.8255 20.6708 14.7945 19.3816 15.2025 18.2038L9.22676 15.3615C8.64953 16.2399 7.81944 16.9154 6.85015 17.2954C5.88086 17.6754 4.81977 17.7413 3.81219 17.4843C2.8046 17.2272 1.89978 16.6596 1.22164 15.8593C0.54349 15.059 0.125174 14.065 0.0239702 13.0135C-0.0772336 11.962 0.143624 10.9044 0.656298 9.98553C1.16897 9.06664 1.9484 8.3314 2.88784 7.88048C3.82728 7.42956 4.88081 7.28502 5.90415 7.46664C6.9275 7.64826 7.87062 8.14716 8.60437 8.89504C8.69387 8.98606 8.78133 9.08121 8.86269 9.17844L15.115 6.52648C14.9017 5.76417 14.8652 4.96194 15.0083 4.18285C15.1515 3.40377 15.4703 2.66907 15.9399 2.03653C16.4094 1.404 17.0169 0.890866 17.7144 0.537491C18.412 0.184115 19.1806 0.000129432 19.9599 4.23227e-07Z" fill="#FCAB26"/>
</svg>
