<svg width="25" height="22" viewBox="0 0 25 22" fill="none" xmlns="http://www.w3.org/2000/svg">
<path d="M0.130449 6.52486L4.12919 0.259327C4.18012 0.179033 4.24708 0.113651 4.32456 0.068565C4.40204 0.0234791 4.48783 -2.09196e-05 4.57486 1.39733e-08H20.407C20.503 0.000373414 20.5972 0.0289144 20.6807 0.0828625C20.7641 0.13681 20.8338 0.21434 20.8832 0.307951L24.8514 6.51097C24.9468 6.62634 24.9999 6.77867 25 6.93701C24.9999 7.09672 24.9468 7.25051 24.8514 7.36768L13.0282 21.7997C12.9789 21.8601 12.9196 21.9088 12.8538 21.9431C12.7879 21.9774 12.7168 21.9966 12.6444 21.9996C12.572 22.0026 12.4998 21.9894 12.4319 21.9606C12.3641 21.9319 12.3018 21.8882 12.2488 21.8321L12.2162 21.7928L0.146729 7.37231C0.123345 7.34361 0.102235 7.31262 0.0836446 7.27969C0.0209608 7.16542 -0.00773887 7.03122 0.00178953 6.89696C0.0113179 6.76269 0.0585685 6.63547 0.136554 6.53412L0.130449 6.52486ZM9.16171 7.56449L12.611 19.3454L15.9952 7.56449H9.16171ZM17.1531 7.56449L13.9073 18.8915L23.1929 7.56449H17.1531ZM11.3371 18.9263L8.00381 7.56449H1.82559L11.3371 18.9263ZM5.62287 1.25496L8.41487 5.86034L11.4002 1.25496H5.62287ZM13.6082 1.25496L16.7196 5.86034L19.3875 1.25496H13.6082ZM20.4294 1.71804L17.7839 6.30258H23.374L20.4294 1.72499V1.71804ZM15.637 6.30953L12.5011 1.6671L9.48934 6.30953H15.637ZM7.35058 6.30953L4.56468 1.7111L1.62209 6.30953H7.35058Z" fill="#FCAB26"/>
</svg>
